# Blender v2.72 (sub 0) OBJ File: 'gpdoquadrado_final.blend'
# www.blender.org
o DijonTrace_BezierCurve
v 11.299835 -0.016089 -24.164846
v 15.036950 -0.016089 -24.177029
v 19.468636 -0.016089 -24.160284
v 24.485529 -0.016089 -24.118893
v 29.978262 -0.016089 -24.057129
v 35.837471 -0.016089 -23.979271
v 41.953781 -0.016089 -23.889597
v 48.217842 -0.016089 -23.792381
v 54.520271 -0.016089 -23.691904
v 60.751717 -0.016089 -23.592440
v 66.802811 -0.016089 -23.498266
v 72.564178 -0.016089 -23.413662
v 77.926445 -0.016089 -23.342903
v 87.188721 -0.016089 -23.008684
v 96.150970 -0.016089 -22.239042
v 104.710899 -0.016089 -21.040968
v 112.766205 -0.016089 -19.421453
v 120.214584 -0.016089 -17.387491
v 126.953743 -0.016088 -14.946072
v 132.881378 -0.016088 -12.104187
v 137.895187 -0.016087 -8.868827
v 141.892868 -0.016085 -5.246984
v 144.772141 -0.016083 -1.245650
v 146.430679 -0.016081 3.128184
v 146.766174 -0.016077 7.867529
v 146.147568 -0.016071 15.568623
v 145.411087 -0.016065 23.295555
v 144.556244 -0.016059 30.930237
v 143.582535 -0.016053 38.354580
v 142.489456 -0.016047 45.450497
v 141.276505 -0.016041 52.099895
v 139.943207 -0.016035 58.184689
v 138.489029 -0.016030 63.586784
v 136.913498 -0.016025 68.188103
v 135.216095 -0.016021 71.870552
v 133.396332 -0.016017 74.516037
v 131.453705 -0.016014 76.006470
v 128.824936 -0.016012 77.153664
v 126.148392 -0.016010 78.294533
v 123.363686 -0.016008 79.410385
v 120.410431 -0.016007 80.482529
v 117.228249 -0.016007 81.492264
v 113.756744 -0.016007 82.420898
v 109.935532 -0.016007 83.249741
v 105.704216 -0.016008 83.960091
v 101.002419 -0.016008 84.533257
v 95.769753 -0.016009 84.950546
v 89.945824 -0.016010 85.193260
v 83.470238 -0.016011 85.242714
v 81.301407 -0.016012 85.166565
v 79.297020 -0.016014 84.967560
v 77.428673 -0.016018 84.636734
v 75.667961 -0.016022 84.165131
v 73.986473 -0.016026 83.543800
v 72.355812 -0.016031 82.763779
v 70.747566 -0.016035 81.816116
v 69.133324 -0.016038 80.691849
v 67.484695 -0.016040 79.382027
v 65.773262 -0.016042 77.877693
v 63.970619 -0.016041 76.169891
v 62.048363 -0.016038 74.249657
v 60.329910 -0.016035 72.135040
v 59.046928 -0.016034 69.798073
v 58.143028 -0.016034 67.272537
v 57.561844 -0.016035 64.592209
v 57.247002 -0.016036 61.790871
v 57.142113 -0.016038 58.902298
v 57.190819 -0.016041 55.960270
v 57.336731 -0.016044 52.998569
v 57.523476 -0.016046 50.050976
v 57.694687 -0.016048 47.151264
v 57.793976 -0.016050 44.333218
v 57.764969 -0.016051 41.630619
v 57.498398 -0.016051 39.355701
v 56.888962 -0.016052 36.788239
v 55.954353 -0.016053 34.015327
v 54.712265 -0.016054 31.124069
v 53.180382 -0.016055 28.201561
v 51.376396 -0.016057 25.334900
v 49.318001 -0.016058 22.611185
v 47.022888 -0.016059 20.117514
v 44.508743 -0.016060 17.940985
v 41.793266 -0.016061 16.168697
v 38.894142 -0.016062 14.887749
v 35.829056 -0.016062 14.185238
v 32.721741 -0.016061 14.173716
v 29.830658 -0.016061 14.848207
v 27.166943 -0.016059 16.094007
v 24.741720 -0.016057 17.796406
v 22.566120 -0.016055 19.840698
v 20.651268 -0.016052 22.112175
v 19.008291 -0.016050 24.496128
v 17.648319 -0.016048 26.877853
v 16.582479 -0.016046 29.142639
v 15.821899 -0.016044 31.175781
v 15.377707 -0.016043 32.862572
v 15.261028 -0.016042 34.088303
v 15.547430 -0.016041 36.614838
v 16.089512 -0.016040 40.694500
v 16.670530 -0.016039 45.956287
v 17.073740 -0.016038 52.029194
v 17.082392 -0.016036 58.542213
v 16.479744 -0.016035 65.124336
v 15.049050 -0.016034 71.404564
v 12.573565 -0.016033 77.011879
v 8.836540 -0.016033 81.575287
v 3.621233 -0.016033 84.723770
v -3.289103 -0.016034 86.086334
v -12.111210 -0.016035 85.291962
v -16.711836 -0.016036 83.679329
v -20.050962 -0.016036 81.063248
v -22.322256 -0.016037 77.556206
v -23.719378 -0.016037 73.270706
v -24.435995 -0.016037 68.319237
v -24.665770 -0.016038 62.814293
v -24.602365 -0.016039 56.868370
v -24.439447 -0.016040 50.593964
v -24.370676 -0.016042 44.103565
v -24.589720 -0.016045 37.509670
v -25.290239 -0.016049 30.924774
v -26.665915 -0.016054 24.461374
v -27.921747 -0.016056 21.678787
v -29.885393 -0.016058 19.464628
v -32.432220 -0.016059 17.777798
v -35.437599 -0.016060 16.577196
v -38.776886 -0.016060 15.821726
v -42.325455 -0.016059 15.470285
v -45.958672 -0.016059 15.481777
v -49.551903 -0.016058 15.815102
v -52.980515 -0.016057 16.429161
v -56.119873 -0.016055 17.282854
v -58.845345 -0.016054 18.335083
v -61.032303 -0.016053 19.544746
v -65.948090 -0.016049 23.800632
v -69.806320 -0.016046 28.952789
v -72.812958 -0.016042 34.815228
v -75.173950 -0.016039 41.201958
v -77.095261 -0.016036 47.926987
v -78.782837 -0.016033 54.804329
v -80.442635 -0.016030 61.647995
v -82.280617 -0.016027 68.271988
v -84.502731 -0.016024 74.490326
v -87.314934 -0.016021 80.117012
v -90.923187 -0.016018 84.966064
v -95.533432 -0.016015 88.851494
v -99.659393 -0.016014 90.750412
v -103.750793 -0.016014 91.224968
v -107.755775 -0.016015 90.426994
v -111.622475 -0.016017 88.508324
v -115.299042 -0.016020 85.620781
v -118.733612 -0.016024 81.916191
v -121.874329 -0.016029 77.546387
v -124.669342 -0.016034 72.663200
v -127.066788 -0.016040 67.418449
v -129.014801 -0.016045 61.963974
v -130.461533 -0.016051 56.451595
v -131.355118 -0.016056 51.033161
v -131.720627 -0.016062 45.166283
v -131.499069 -0.016066 39.648518
v -130.757660 -0.016070 34.467346
v -129.563583 -0.016072 29.610252
v -127.984024 -0.016074 25.064714
v -126.086197 -0.016075 20.818216
v -123.937286 -0.016076 16.858240
v -121.604492 -0.016076 13.172266
v -119.155014 -0.016076 9.747778
v -116.656052 -0.016076 6.572257
v -114.174789 -0.016076 3.633183
v -111.778404 -0.016076 0.918034
v -108.621262 -0.016076 -2.293516
v -105.020813 -0.016076 -5.418211
v -101.084457 -0.016077 -8.419365
v -96.919579 -0.016079 -11.260294
v -92.633568 -0.016080 -13.904312
v -88.333817 -0.016082 -16.314734
v -84.127708 -0.016084 -18.454872
v -80.122643 -0.016085 -20.288042
v -76.426003 -0.016087 -21.777559
v -73.145180 -0.016088 -22.886736
v -70.387566 -0.016089 -23.578888
v -68.260559 -0.016089 -23.817329
v -63.924843 -0.016089 -23.814480
v -58.236130 -0.016089 -23.809309
v -51.438988 -0.016089 -23.803011
v -43.777969 -0.016089 -23.796776
v -35.497635 -0.016089 -23.791798
v -26.842546 -0.016089 -23.789267
v -18.057257 -0.016089 -23.790375
v -9.386328 -0.016089 -23.796312
v -1.074320 -0.016089 -23.808273
v 6.634211 -0.016089 -23.827448
v 13.494704 -0.016089 -23.855028
v 19.262594 -0.016089 -23.892206
o RoadTile_Plane.001
v -2.468498 -0.016035 -31.674873
v -2.321934 -0.016034 -14.122550
v 10.732017 -0.016035 -31.698086
v 10.878582 -0.016034 -14.145762
v -2.468498 -0.016035 -31.674873
v 4.635883 -0.016035 -31.687202
v 10.732373 -0.016035 -31.698448
v 10.878939 -0.016034 -14.146123
v 23.998907 -0.016035 -31.655563
v 23.838070 -0.016034 -14.103360
v 10.732373 -0.016035 -31.698448
v 17.893150 -0.016035 -31.698462
v 23.999269 -0.016035 -31.655920
v 23.838430 -0.016034 -14.103719
v 37.168118 -0.016035 -31.494297
v 36.919525 -0.016032 -13.943116
v 23.999269 -0.016035 -31.655920
v 31.092203 -0.016035 -31.577396
v 37.168484 -0.016035 -31.494650
v 36.919888 -0.016033 -13.943473
v 50.311623 -0.016035 -31.294365
v 50.033958 -0.016033 -13.743623
v 37.168484 -0.016035 -31.494650
v 44.244034 -0.016035 -31.389259
v 50.311985 -0.016035 -31.294718
v 50.034325 -0.016033 -13.743978
v 63.440174 -0.016035 -31.085924
v 63.167953 -0.016032 -13.535098
v 50.311985 -0.016035 -31.294718
v 57.379108 -0.016034 -31.181637
v 63.440548 -0.016035 -31.086281
v 63.168312 -0.016033 -13.535451
v 76.618126 -0.016033 -30.894958
v 76.236954 -0.016033 -13.346152
v 63.440548 -0.016035 -31.086281
v 70.500557 -0.016034 -30.979322
v 76.618492 -0.016035 -30.895313
v 76.237320 -0.016035 -13.346507
v 90.134789 -0.016034 -30.311588
v 88.823174 -0.016033 -12.807723
v 76.618492 -0.016035 -30.895313
v 83.869148 -0.016034 -30.667366
v 90.135185 -0.016035 -30.311913
v 88.823540 -0.016034 -12.808053
v 103.780113 -0.016035 -28.757605
v 101.063530 -0.016033 -11.416154
v 90.135185 -0.016035 -30.311913
v 97.479073 -0.016035 -29.658873
v 103.780556 -0.016035 -28.757902
v 101.063927 -0.016033 -11.416459
v 117.403297 -0.016035 -25.965261
v 112.897972 -0.016033 -9.000373
v 103.780556 -0.016035 -28.757902
v 111.117775 -0.016035 -27.437746
v 117.403786 -0.016036 -25.965504
v 112.898369 -0.016033 -9.000635
v 130.934219 -0.016035 -21.353085
v 123.828545 -0.016033 -5.302680
v 117.403786 -0.016036 -25.965504
v 124.705116 -0.016035 -23.748648
v 130.934738 -0.016036 -21.353264
v 123.828972 -0.016031 -5.302896
v 144.007919 -0.016031 -13.385028
v 132.478073 -0.016031 -0.149887
v 130.934738 -0.016036 -21.353264
v 138.093842 -0.016033 -17.676529
v 144.008499 -0.016031 -13.385009
v 132.478516 -0.016034 -0.150003
v 153.357788 -0.016023 1.161268
v 136.323090 -0.016030 5.394910
v 144.008499 -0.016031 -13.385009
v 150.095734 -0.016028 -6.552448
v 153.358261 -0.016024 1.161669
v 136.323456 -0.016030 5.394982
v 153.607574 -0.016012 16.622234
v 136.116531 -0.016022 15.149503
v 153.358261 -0.016024 1.161669
v 154.112885 -0.016016 10.116792
v 153.607895 -0.016012 16.622631
v 136.116852 -0.016023 15.149898
v 152.249039 -0.016001 29.930956
v 134.815353 -0.016012 27.888264
v 153.607895 -0.016012 16.622631
v 152.919006 -0.016006 23.799866
v 152.249344 -0.016002 29.931398
v 134.815689 -0.016013 27.888618
v 150.454956 -0.015989 43.228844
v 133.111725 -0.016002 40.523659
v 152.249344 -0.016002 29.931398
v 151.347763 -0.015995 37.082645
v 150.455246 -0.015990 43.229263
v 133.112030 -0.016003 40.524063
v 148.001602 -0.015978 56.609070
v 130.862732 -0.015991 52.819023
v 150.455246 -0.015990 43.229263
v 149.240128 -0.015984 50.412792
v 148.001877 -0.015978 56.609539
v 130.863007 -0.015992 52.819412
v 144.012466 -0.015964 70.409592
v 127.740379 -0.015980 63.827454
v 148.001877 -0.015978 56.609539
v 146.190704 -0.015970 63.917007
v 144.012650 -0.015966 70.410149
v 127.740608 -0.015980 63.827835
v 131.999817 -0.015944 83.979523
v 124.711342 -0.015974 68.011314
v 144.012650 -0.015966 70.410149
v 139.529709 -0.015953 78.742775
v 131.999588 -0.015945 83.980011
v 124.711220 -0.015975 68.011765
v 118.605858 -0.015937 88.904350
v 113.834587 -0.015971 72.012306
v 131.999588 -0.015945 83.980011
v 124.899590 -0.015939 86.844070
v 118.605598 -0.015939 88.904800
v 113.834358 -0.015972 72.012764
v 104.634987 -0.015938 91.663361
v 102.431984 -0.015972 74.249207
v 118.605598 -0.015939 88.904800
v 111.089546 -0.015938 90.647202
v 104.634651 -0.015940 91.663765
v 102.431740 -0.015971 74.249596
v 90.817162 -0.015941 92.667526
v 90.310280 -0.015974 75.121902
v 104.634651 -0.015940 91.663765
v 97.169060 -0.015940 92.376938
v 90.816811 -0.015941 92.667900
v 90.309944 -0.015975 75.122276
v 75.881767 -0.015953 91.896500
v 79.731438 -0.015978 74.770927
v 90.816811 -0.015941 92.667900
v 83.409752 -0.015942 92.768730
v 75.881264 -0.015952 91.896729
v 79.731209 -0.015980 74.771217
v 61.201321 -0.015982 83.886986
v 72.886177 -0.015992 70.788544
v 75.881264 -0.015952 91.896729
v 67.130165 -0.015972 88.312653
v 61.200787 -0.015982 83.886978
v 72.885750 -0.015993 70.788628
v 51.326221 -0.015973 70.325378
v 67.966545 -0.015987 64.739166
v 61.200787 -0.015982 83.886978
v 55.338764 -0.015977 77.714630
v 51.325687 -0.015974 70.325020
v 67.966148 -0.015990 64.739151
v 49.735180 -0.015982 54.684654
v 67.276909 -0.015993 55.311668
v 51.325687 -0.015974 70.325020
v 49.749348 -0.015977 61.489098
v 49.734833 -0.015983 54.684258
v 67.276573 -0.015994 55.311359
v 50.125629 -0.015990 42.422092
v 67.627296 -0.016002 41.081417
v 49.734833 -0.015983 54.684258
v 50.116947 -0.015988 47.534382
v 50.125252 -0.015991 42.421894
v 67.626900 -0.016002 41.080948
v 47.147026 -0.015994 32.978081
v 62.634853 -0.016007 24.717731
v 50.125252 -0.015991 42.421894
v 49.121883 -0.015991 37.426132
v 47.146561 -0.015995 32.977993
v 62.634335 -0.016008 24.717554
v 40.905945 -0.015998 24.826900
v 52.346481 -0.016013 11.514544
v 47.146561 -0.015995 32.977993
v 44.024155 -0.015996 28.202106
v 40.905540 -0.015998 24.827000
v 52.345932 -0.016014 11.514516
v 34.169312 -0.015998 21.844158
v 33.782871 -0.016018 4.295504
v 40.905540 -0.015998 24.827000
v 37.099335 -0.015999 22.468834
v 34.169155 -0.015999 21.844492
v 33.782265 -0.016017 4.295849
v 28.095648 -0.015995 25.156826
v 15.466623 -0.016006 12.966111
v 34.169155 -0.015999 21.844492
v 31.014650 -0.015997 22.740242
v 28.095736 -0.015996 25.157261
v 15.466572 -0.016008 12.966689
v 23.308199 -0.015987 33.060448
v 6.386618 -0.015993 28.395000
v 28.095736 -0.015996 25.157261
v 24.947672 -0.015990 29.318769
v 23.308535 -0.015988 33.060677
v 6.386830 -0.015993 28.395668
v 23.950411 -0.015984 43.255478
v 6.485497 -0.015985 45.011097
v 23.308535 -0.015988 33.060677
v 23.239557 -0.015985 37.257538
v 23.950796 -0.015984 43.255741
v 6.485884 -0.015986 45.011391
v 24.612007 -0.015980 57.325264
v 7.065819 -0.015984 56.838177
v 23.950796 -0.015984 43.255741
v 24.492907 -0.015982 50.751316
v 24.612368 -0.015981 57.325668
v 7.066177 -0.015985 56.838505
v 22.494390 -0.015978 72.231506
v 5.679000 -0.015982 67.196739
v 24.612368 -0.015981 57.325668
v 23.930948 -0.015979 65.248276
v 22.494625 -0.015978 72.232033
v 5.679293 -0.015983 67.197075
v 13.744900 -0.015976 86.792252
v 2.149906 -0.015981 73.614197
v 22.494625 -0.015978 72.232033
v 19.141247 -0.015977 80.473427
v 13.744711 -0.015977 86.792877
v 2.150028 -0.015982 73.614548
v -2.526833 -0.015975 93.415466
v -3.766083 -0.015985 75.906357
v 13.744711 -0.015977 86.792877
v 5.360064 -0.015975 91.800888
v -2.527163 -0.015974 93.415810
v -3.766299 -0.015985 75.906700
v -19.205450 -0.015976 90.730583
v -11.540861 -0.015988 74.939415
v -2.527163 -0.015974 93.415810
v -11.231707 -0.015976 92.921188
v -19.206137 -0.015977 90.730705
v -11.541161 -0.015988 74.939713
v -30.681253 -0.015978 75.877907
v -13.773396 -0.015986 71.163002
v -19.206137 -0.015977 90.730705
v -27.261915 -0.015977 83.661507
v -30.681742 -0.015978 75.877495
v -13.773792 -0.015988 71.162949
v -32.173355 -0.015980 60.870850
v -14.620646 -0.015988 60.781013
v -30.681742 -0.015978 75.877495
v -32.010014 -0.015979 67.440590
v -32.173714 -0.015980 60.870468
v -14.621008 -0.015988 60.780716
v -31.943117 -0.015983 47.663761
v -14.390409 -0.015991 47.753624
v -32.173714 -0.015980 60.870468
v -32.054050 -0.015980 53.630363
v -31.943472 -0.015983 47.663452
v -14.390766 -0.015991 47.753208
v -32.391808 -0.015988 35.409126
v -14.942814 -0.015997 33.501606
v -31.943472 -0.015983 47.663452
v -32.013664 -0.015985 40.952389
v -32.392208 -0.015989 35.408817
v -14.943216 -0.015998 33.501316
v -34.348648 -0.015995 26.077276
v -19.611086 -0.016010 16.542702
v -32.392208 -0.015989 35.408817
v -33.314186 -0.015992 29.401934
v -34.348991 -0.015995 26.077316
v -19.611719 -0.016010 16.542294
v -40.261879 -0.015995 23.360905
v -37.415989 -0.016018 6.040208
v -34.348991 -0.015995 26.077316
v -36.519596 -0.015996 24.370050
v -40.262196 -0.015996 23.361216
v -37.416531 -0.016019 6.040484
v -50.553387 -0.015993 23.714130
v -54.076267 -0.016015 6.518340
v -40.262196 -0.015996 23.361216
v -45.691654 -0.015993 23.039984
v -50.553593 -0.015994 23.714544
v -54.076649 -0.016014 6.518790
v -58.696323 -0.015989 27.529766
v -70.325676 -0.016004 14.381970
v -50.553593 -0.015994 23.714544
v -55.477215 -0.015992 25.186790
v -58.696301 -0.015989 27.530247
v -70.325813 -0.016005 14.382602
v -64.810844 -0.015984 35.741405
v -80.405556 -0.015997 27.684662
v -58.696301 -0.015989 27.530247
v -62.313072 -0.015986 31.514715
v -64.810661 -0.015984 35.741802
v -80.405434 -0.015996 27.685223
v -68.903893 -0.015978 46.681332
v -85.733696 -0.015990 41.694988
v -64.810661 -0.015984 35.741802
v -67.201363 -0.015980 41.384914
v -68.903633 -0.015978 46.681759
v -85.733467 -0.015991 41.695503
v -72.069145 -0.015973 59.088135
v -89.099190 -0.015984 54.835716
v -68.903633 -0.015978 46.681759
v -70.639503 -0.015975 53.233051
v -72.068901 -0.015973 59.088646
v -89.098930 -0.015983 54.836147
v -75.746315 -0.015966 72.375145
v -92.338158 -0.015978 66.646568
v -72.068901 -0.015973 59.088646
v -73.875862 -0.015970 66.151123
v -75.746086 -0.015967 72.375572
v -92.337929 -0.015979 66.647034
v -82.363289 -0.015959 86.076332
v -96.664101 -0.015973 75.898331
v -75.746086 -0.015967 72.375572
v -78.771675 -0.015963 79.786385
v -82.363335 -0.015961 86.076965
v -96.663963 -0.015975 75.898720
v -95.620171 -0.015953 97.124992
v -101.909523 -0.015969 80.737465
v -82.363335 -0.015961 86.076965
v -88.422142 -0.015956 92.711121
v -95.620506 -0.015953 97.125542
v -101.909508 -0.015969 80.737877
v -114.405739 -0.015956 95.383354
v -105.911674 -0.015971 80.022476
v -95.620506 -0.015953 97.125542
v -106.204826 -0.015952 98.350792
v -114.406334 -0.015957 95.383423
v -105.912010 -0.015971 80.022697
v -126.277092 -0.015968 84.317780
v -112.117500 -0.015977 73.944176
v -114.406334 -0.015957 95.383423
v -121.650627 -0.015962 89.833221
v -126.277672 -0.015969 84.317581
v -112.117958 -0.015978 73.944153
v -133.499619 -0.015982 71.381439
v -117.354500 -0.015987 64.493721
v -126.277672 -0.015969 84.317581
v -130.581039 -0.015975 77.498604
v -133.500092 -0.015982 71.381203
v -117.354988 -0.015988 64.493515
v -137.899475 -0.015996 57.429100
v -120.696968 -0.015998 53.939140
v -133.500092 -0.015982 71.381203
v -136.173706 -0.015989 63.987831
v -137.899933 -0.015997 57.428696
v -120.697395 -0.015998 53.938976
v -139.128693 -0.016009 42.646172
v -121.584511 -0.016008 43.200535
v -137.899933 -0.015997 57.428696
v -138.997894 -0.016003 49.515705
v -139.129044 -0.016010 42.645752
v -121.584862 -0.016008 43.200226
v -136.793839 -0.016018 27.882488
v -119.927376 -0.016015 32.743359
v -139.129044 -0.016010 42.645752
v -138.345291 -0.016015 34.631138
v -136.794113 -0.016019 27.882076
v -119.927620 -0.016016 32.742920
v -131.037720 -0.016023 14.229722
v -115.725883 -0.016018 22.811857
v -136.794113 -0.016019 27.882076
v -134.102676 -0.016022 20.311676
v -131.037796 -0.016024 14.229133
v -115.726082 -0.016019 22.811470
v -122.932869 -0.016024 2.370946
v -109.253181 -0.016018 13.369676
v -131.037796 -0.016024 14.229133
v -126.866447 -0.016024 7.628627
v -122.932899 -0.016025 2.370428
v -109.253212 -0.016018 13.369145
v -113.323906 -0.016024 -8.114946
v -101.401573 -0.016018 4.767762
v -122.932899 -0.016025 2.370428
v -118.009575 -0.016024 -3.354734
v -113.323860 -0.016023 -8.115489
v -101.401604 -0.016019 4.767284
v -102.009743 -0.016026 -16.880108
v -92.284782 -0.016023 -2.267424
v -113.323860 -0.016023 -8.115489
v -107.345695 -0.016023 -13.096931
v -102.009636 -0.016025 -16.880623
v -92.284752 -0.016022 -2.267871
v -89.942085 -0.016028 -23.944027
v -81.946770 -0.016027 -8.317754
v -102.009636 -0.016025 -16.880623
v -95.612312 -0.016026 -20.870014
v -89.941902 -0.016029 -23.944519
v -81.946571 -0.016027 -8.318252
v -76.737312 -0.016034 -29.593445
v -71.431648 -0.016032 -12.861583
v -89.941902 -0.016029 -23.944519
v -83.088493 -0.016032 -27.184481
v -76.736992 -0.016033 -29.593912
v -71.431511 -0.016031 -12.861993
v -61.517616 -0.016036 -31.346643
v -61.495323 -0.016031 -13.793719
v -76.736992 -0.016033 -29.593912
v -68.192299 -0.016035 -31.222832
v -61.517250 -0.016036 -31.347002
v -61.494987 -0.016031 -13.794078
v -48.369244 -0.016036 -31.334930
v -48.383713 -0.016031 -13.781997
v -61.517250 -0.016036 -31.347002
v -54.433186 -0.016036 -31.340195
v -48.368877 -0.016036 -31.335287
v -48.383350 -0.016032 -13.782357
v -35.239502 -0.016036 -31.326450
v -35.247318 -0.016030 -13.773513
v -48.368877 -0.016036 -31.335287
v -41.302513 -0.016036 -31.329697
v -35.239212 -0.016037 -31.326811
v -35.246956 -0.016031 -13.773873
v -22.111475 -0.016035 -31.324270
v -22.108736 -0.016032 -13.771329
v -35.239212 -0.016037 -31.326811
v -28.173704 -0.016035 -31.324062
v -22.111109 -0.016036 -31.324631
v -22.108305 -0.016033 -13.771691
v -8.985958 -0.016036 -31.331303
v -8.966894 -0.016032 -13.778377
v -22.111109 -0.016036 -31.324631
v -15.046951 -0.016036 -31.326916
v -8.985598 -0.016037 -31.331663
v -8.966534 -0.016032 -13.778735
v 4.133545 -0.016035 -31.355659
v 4.183019 -0.016032 -13.802789
v -8.985598 -0.016037 -31.331663
v -1.924044 -0.016035 -31.342243
vt 0.000000 1.000000
vt 0.000000 0.000000
vt 1.000000 0.000000
vt 1.000000 1.000000
vn -0.000000 1.000000 -0.000000
s off
f 194/1/1 195/2/1 197/3/1
f 200/1/1 201/2/1 203/3/1
f 206/1/1 207/2/1 209/3/1
f 212/1/1 213/2/1 215/3/1
f 218/1/1 219/2/1 221/3/1
f 225/2/1 227/3/1 226/4/1
f 231/2/1 233/3/1 232/4/1
f 237/2/1 239/3/1 238/4/1
f 243/2/1 245/3/1 244/4/1
f 249/2/1 251/3/1 250/4/1
f 255/2/1 257/3/1 256/4/1
f 261/2/1 263/3/1 262/4/1
f 266/1/1 267/2/1 269/3/1
f 272/1/1 273/2/1 275/3/1
f 279/2/1 281/3/1 280/4/1
f 285/2/1 287/3/1 286/4/1
f 291/2/1 293/3/1 292/4/1
f 297/2/1 299/3/1 298/4/1
f 303/2/1 305/3/1 304/4/1
f 308/1/1 309/2/1 311/3/1
f 314/1/1 315/2/1 317/3/1
f 321/2/1 323/3/1 322/4/1
f 326/1/1 327/2/1 329/3/1
f 333/2/1 335/3/1 334/4/1
f 338/1/1 339/2/1 341/3/1
f 344/1/1 345/2/1 347/3/1
f 351/2/1 353/3/1 352/4/1
f 356/1/1 357/2/1 359/3/1
f 362/1/1 363/2/1 365/3/1
f 369/2/1 371/3/1 370/4/1
f 374/1/1 375/2/1 377/3/1
f 381/2/1 383/3/1 382/4/1
f 387/2/1 389/3/1 388/4/1
f 393/2/1 395/3/1 394/4/1
f 399/2/1 401/3/1 400/4/1
f 404/1/1 405/2/1 407/3/1
f 411/2/1 413/3/1 412/4/1
f 416/1/1 417/2/1 419/3/1
f 422/1/1 423/2/1 425/3/1
f 428/1/1 429/2/1 431/3/1
f 434/1/1 435/2/1 437/3/1
f 440/1/1 441/2/1 443/3/1
f 447/2/1 449/3/1 448/4/1
f 453/2/1 455/3/1 454/4/1
f 458/1/1 459/2/1 461/3/1
f 465/2/1 467/3/1 466/4/1
f 471/2/1 473/3/1 472/4/1
f 477/2/1 479/3/1 478/4/1
f 483/2/1 485/3/1 484/4/1
f 489/2/1 491/3/1 490/4/1
f 495/2/1 497/3/1 496/4/1
f 500/1/1 501/2/1 503/3/1
f 506/1/1 507/2/1 509/3/1
f 512/1/1 513/2/1 515/3/1
f 519/2/1 521/3/1 520/4/1
f 524/1/1 525/2/1 527/3/1
f 530/1/1 531/2/1 533/3/1
f 536/1/1 537/2/1 539/3/1
f 542/1/1 543/2/1 545/3/1
f 549/2/1 551/3/1 550/4/1
f 554/1/1 555/2/1 557/3/1
f 560/1/1 561/2/1 563/3/1
f 567/2/1 569/3/1 568/4/1
f 572/1/1 573/2/1 575/3/1
f 578/1/1 579/2/1 581/3/1
f 584/1/1 585/2/1 587/3/1
f 590/1/1 591/2/1 593/3/1
f 596/1/1 597/2/1 599/3/1
f 602/1/1 603/2/1 605/3/1
f 196/4/1 194/1/1 197/3/1
f 202/4/1 200/1/1 203/3/1
f 208/4/1 206/1/1 209/3/1
f 214/4/1 212/1/1 215/3/1
f 220/4/1 218/1/1 221/3/1
f 224/1/1 225/2/1 226/4/1
f 230/1/1 231/2/1 232/4/1
f 236/1/1 237/2/1 238/4/1
f 242/1/1 243/2/1 244/4/1
f 248/1/1 249/2/1 250/4/1
f 254/1/1 255/2/1 256/4/1
f 260/1/1 261/2/1 262/4/1
f 268/4/1 266/1/1 269/3/1
f 274/4/1 272/1/1 275/3/1
f 278/1/1 279/2/1 280/4/1
f 284/1/1 285/2/1 286/4/1
f 290/1/1 291/2/1 292/4/1
f 296/1/1 297/2/1 298/4/1
f 302/1/1 303/2/1 304/4/1
f 310/4/1 308/1/1 311/3/1
f 316/4/1 314/1/1 317/3/1
f 320/1/1 321/2/1 322/4/1
f 328/4/1 326/1/1 329/3/1
f 332/1/1 333/2/1 334/4/1
f 340/4/1 338/1/1 341/3/1
f 346/4/1 344/1/1 347/3/1
f 350/1/1 351/2/1 352/4/1
f 358/4/1 356/1/1 359/3/1
f 364/4/1 362/1/1 365/3/1
f 368/1/1 369/2/1 370/4/1
f 376/4/1 374/1/1 377/3/1
f 380/1/1 381/2/1 382/4/1
f 386/1/1 387/2/1 388/4/1
f 392/1/1 393/2/1 394/4/1
f 398/1/1 399/2/1 400/4/1
f 406/4/1 404/1/1 407/3/1
f 410/1/1 411/2/1 412/4/1
f 418/4/1 416/1/1 419/3/1
f 424/4/1 422/1/1 425/3/1
f 430/4/1 428/1/1 431/3/1
f 436/4/1 434/1/1 437/3/1
f 442/4/1 440/1/1 443/3/1
f 446/1/1 447/2/1 448/4/1
f 452/1/1 453/2/1 454/4/1
f 460/4/1 458/1/1 461/3/1
f 464/1/1 465/2/1 466/4/1
f 470/1/1 471/2/1 472/4/1
f 476/1/1 477/2/1 478/4/1
f 482/1/1 483/2/1 484/4/1
f 488/1/1 489/2/1 490/4/1
f 494/1/1 495/2/1 496/4/1
f 502/4/1 500/1/1 503/3/1
f 508/4/1 506/1/1 509/3/1
f 514/4/1 512/1/1 515/3/1
f 518/1/1 519/2/1 520/4/1
f 526/4/1 524/1/1 527/3/1
f 532/4/1 530/1/1 533/3/1
f 538/4/1 536/1/1 539/3/1
f 544/4/1 542/1/1 545/3/1
f 548/1/1 549/2/1 550/4/1
f 556/4/1 554/1/1 557/3/1
f 562/4/1 560/1/1 563/3/1
f 566/1/1 567/2/1 568/4/1
f 574/4/1 572/1/1 575/3/1
f 580/4/1 578/1/1 581/3/1
f 586/4/1 584/1/1 587/3/1
f 592/4/1 590/1/1 593/3/1
f 598/4/1 596/1/1 599/3/1
f 604/4/1 602/1/1 605/3/1
